<?xml version="1.0" encoding="utf-8"?><svg xml:space="preserve" viewBox="0 0 100 100" y="0" x="0" xmlns="http://www.w3.org/2000/svg" id="圖層_1" version="1.1" width="200px" height="200px" xmlns:xlink="http://www.w3.org/1999/xlink" style="width:100%;height:100%;animation-play-state:paused" ><g class="ldl-scale" style="transform-origin:50% 50% 0px;transform:rotate(0deg) scale(0.8);animation-play-state:paused" ><g style="animation-play-state:paused" ><path d="M51.7 36.2h18.4v5.7H51.7z" fill="#c59b6d" transform="rotate(-45.001 60.89 39.111)" style="fill:rgb(197, 155, 109);animation-play-state:paused" ></path></g>
<g style="animation-play-state:paused" ><path d="M73.1 18.2h11.7v5.7H73.1z" fill="#f47e60" transform="rotate(-45.001 78.926 21.075)" style="fill:rgb(244, 126, 96);animation-play-state:paused" ></path></g>
<g style="animation-play-state:paused" ><path d="M63.4 10h5.7v11.7h-5.7z" fill="#f47e60" style="fill:rgb(244, 126, 96);animation-play-state:paused" ></path></g>
<g style="animation-play-state:paused" ><path d="M50.7 15.2h5.7v11.7h-5.7z" fill="#f47e60" transform="rotate(-45.001 53.61 21.074)" style="fill:rgb(244, 126, 96);animation-play-state:paused" ></path></g>
<g style="animation-play-state:paused" ><path d="M76.1 40.6h5.7v11.7h-5.7z" fill="#f47e60" transform="rotate(-45.001 78.926 46.39)" style="fill:rgb(244, 126, 96);animation-play-state:paused" ></path></g>
<g style="animation-play-state:paused" ><path d="M78.3 30.9H90v5.7H78.3z" fill="#f47e60" style="fill:rgb(244, 126, 96);animation-play-state:paused" ></path></g>
<path fill="#abbd81" d="M28.8 49.5c3.9-3.9 8.7-6.6 13.7-8-8.6-2.8-18.4-.7-25.2 6.1-9.7 9.7-9.7 25.4 0 35.1 1.9 1.9 4.1 3.5 6.5 4.7-6.9-12-5.3-27.6 5-37.9z" style="fill:rgb(171, 189, 129);animation-play-state:paused" ></path>
<path fill="#849b87" d="M62.5 46.9L53 37.4l-6 6.1c-1.5-.8-3-1.5-4.6-2-5 1.4-9.7 4.1-13.7 8-10.3 10.3-11.9 25.8-5.1 37.9 9.3 4.7 20.9 3.1 28.7-4.7 8.1-8.1 9.4-20.3 4.1-29.8l6.1-6z" style="fill:rgb(132, 155, 135);animation-play-state:paused" ></path>
<metadata xmlns:d="https://loading.io/stock/" style="animation-play-state:paused" ><d:name style="animation-play-state:paused" >bomb</d:name>
<d:tags style="animation-play-state:paused" >danger,missile,issue,crisis,crash,error,bug,note,warning,tnt,explosion,canon,bomb,web application</d:tags>
<d:license style="animation-play-state:paused" >pro</d:license>
<d:slug style="animation-play-state:paused" >ljmehl</d:slug></metadata></g><!-- generated by https://loading.io/ --></svg>
