<?xml version="1.0" encoding="utf-8"?><svg xml:space="preserve" viewBox="0 0 100 100" y="0" x="0" xmlns="http://www.w3.org/2000/svg" id="圖層_1" version="1.1" width="200px" height="200px" xmlns:xlink="http://www.w3.org/1999/xlink" style="width:100%;height:100%;animation-play-state:paused" ><g class="ldl-scale" style="transform-origin:50% 50% 0px;transform:rotate(0deg) scale(0.8);animation-play-state:paused" ><path stroke-miterlimit="10" stroke-width="3.5" stroke="#333" fill="#fff" d="M73.195 26.731V14.476h-46.39v12.255c0 5.892 3.877 11.092 9.81 14.252 3.551 1.892 5.674 4.955 5.674 8.231v1.571c0 3.277-2.123 6.34-5.674 8.231-5.933 3.161-9.81 8.361-9.81 14.252v12.255h46.389V73.269c0-5.892-3.877-11.092-9.81-14.252-3.551-1.892-5.674-4.955-5.674-8.231v-1.571c0-3.277 2.123-6.34 5.674-8.231 5.934-3.161 9.811-8.361 9.811-14.253z" style="stroke:rgb(51, 51, 51);fill:rgb(255, 255, 255);animation-play-state:paused" ></path>
<path stroke-miterlimit="10" stroke-linejoin="round" stroke-width="3.5" stroke="#333" fill="#f5e6c8" d="M34.992 85.285h30.017v-8.379c0-3.162-2.139-6.115-5.868-8.102l-.142-.076c-5.55-3.006-12.447-3.006-17.997 0a6.388 6.388 0 0 1-.142.076c-3.729 1.987-5.868 4.94-5.868 8.102v8.379z" style="stroke:rgb(51, 51, 51);fill:rgb(245, 230, 200);animation-play-state:paused" ></path>
<path stroke-miterlimit="10" stroke-linejoin="round" stroke-width="3.5" stroke="#333" fill="#f5e6c8" d="M35.162 28.182c.55 2.601 2.548 4.973 5.698 6.652 4.743 2.526 7.979 6.398 9.14 10.761 1.161-4.363 4.398-8.235 9.14-10.761 3.15-1.679 5.148-4.05 5.698-6.652H35.162z" style="stroke:rgb(51, 51, 51);fill:rgb(245, 230, 200);animation-play-state:paused" ></path>
<path d="M50 51.645v2.078" stroke-miterlimit="10" stroke-linejoin="round" stroke-linecap="round" stroke-width="3.5" stroke="#333" fill="none" style="stroke:rgb(51, 51, 51);animation-play-state:paused" ></path>
<path d="M50 59.87h0" stroke-miterlimit="10" stroke-linejoin="round" stroke-linecap="round" stroke-width="3.5" stroke="#333" fill="none" style="stroke:rgb(51, 51, 51);animation-play-state:paused" ></path>
<path stroke-miterlimit="10" stroke-linecap="round" stroke-width="3.5" stroke="#e0e0e0" fill="#fff" d="M32.679 70.839c-.211.44-.399.887-.564 1.343" style="stroke:rgb(224, 224, 224);fill:rgb(255, 255, 255);animation-play-state:paused" ></path>
<path stroke-miterlimit="10" stroke-linecap="round" stroke-width="3.5" stroke="#e0e0e0" fill="#fff" d="M43.5 60.893a12.876 12.876 0 0 1-2.385 1.623c-2.051 1.093-3.856 2.429-5.341 3.953" style="stroke:rgb(224, 224, 224);fill:rgb(255, 255, 255);animation-play-state:paused" ></path>
<path stroke-miterlimit="10" stroke-width="3.5" stroke="#333" fill="#849b87" d="M80.488 80.41H19.512c-1.66 0-2.887 1.359-2.51 2.78l.682 2.562C18.346 88.24 20.871 90 23.78 90h52.44c2.909 0 5.435-1.76 6.097-4.249l.682-2.562c.377-1.42-.85-2.779-2.511-2.779z" style="stroke:rgb(51, 51, 51);fill:rgb(132, 155, 135);animation-play-state:paused" ></path>
<path stroke-miterlimit="10" stroke-width="3.5" stroke="#333" fill="#849b87" d="M80.488 19.59H19.512c-1.66 0-2.887-1.359-2.51-2.78l.682-2.562C18.346 11.76 20.871 10 23.78 10h52.44c2.909 0 5.435 1.76 6.097 4.249l.682 2.562c.377 1.42-.85 2.779-2.511 2.779z" style="stroke:rgb(51, 51, 51);fill:rgb(132, 155, 135);animation-play-state:paused" ></path>
<path opacity=".2" d="M80.488 78.659h-5.543v-5.39c0-6.31-4.014-12.215-10.737-15.798-2.973-1.583-4.747-4.083-4.747-6.687v-1.57c0-2.604 1.774-5.104 4.747-6.688 6.723-3.582 10.737-9.487 10.737-15.797v-5.39h5.543c1.397 0 2.715-.629 3.524-1.682.734-.954.98-2.156.676-3.299l-.681-2.562c-.869-3.267-4.072-5.549-7.788-5.549H50v83.5h26.22c3.716 0 6.919-2.282 7.788-5.549l.682-2.562a3.782 3.782 0 0 0-.677-3.299c-.81-1.049-2.127-1.678-3.525-1.678z" style="animation-play-state:paused" ></path>
<path d="M23.375 14.795h7.75" stroke-miterlimit="10" stroke-linecap="round" stroke-width="3.5" stroke="#e0e0e0" fill="none" style="stroke:rgb(224, 224, 224);animation-play-state:paused" ></path>
<path d="M36.274 14.795h.976" stroke-miterlimit="10" stroke-linecap="round" stroke-width="3.5" stroke="#e0e0e0" fill="none" style="stroke:rgb(224, 224, 224);animation-play-state:paused" ></path>
<metadata xmlns:d="https://loading.io/stock/" style="animation-play-state:paused" ><d:name style="animation-play-state:paused" >hourglass</d:name>
<d:tags style="animation-play-state:paused" >hourglass,sandglass,timer,countdown,elapse,flow,pass by,temporal</d:tags>
<d:license style="animation-play-state:paused" >by</d:license>
<d:slug style="animation-play-state:paused" >8jeeja</d:slug></metadata></g><!-- generated by https://loading.io/ --></svg>
